HIERARCHY
ROOT Hips
{
	OFFSET -3.958830 18.904000 13.208200
	CHANNELS 6 Xposition Yposition Zposition Zrotation Yrotation Xrotation 
	JOINT LHipJoint
	{
		OFFSET 0.000000 0.000000 0.000000
		CHANNELS 3 Zrotation Yrotation Xrotation
		JOINT LeftUpLeg
		{
			OFFSET 1.800000 -1.400000 0.085000
			CHANNELS 3 Zrotation Yrotation Xrotation
			JOINT LeftLeg
			{
				OFFSET 2.215000 -6.000000 0.000000
				CHANNELS 3 Zrotation Yrotation Xrotation
				JOINT LeftFoot
				{
					OFFSET 2.500000 -6.900000 0.000000
					CHANNELS 3 Zrotation Yrotation Xrotation
					JOINT LeftToeBase
					{
						OFFSET 0.200000 -0.500000 1.950000
						CHANNELS 3 Zrotation Yrotation Xrotation
						End Site
						{
							OFFSET 0.000000 0.000000 0.000000
						}
					}
				}
			}
		}
	}
	JOINT RHipJoint
	{
		OFFSET 0.000000 0.000000 0.000000
		CHANNELS 3 Zrotation Yrotation Xrotation
		JOINT RightUpLeg
		{
			OFFSET -1.800000 -1.400000 0.085000
			CHANNELS 3 Zrotation Yrotation Xrotation
			JOINT RightLeg
			{
				OFFSET -2.215000 -6.000000 0.000000
				CHANNELS 3 Zrotation Yrotation Xrotation
				JOINT RightFoot
				{
					OFFSET -2.500000 -6.900000 0.000000
					CHANNELS 3 Zrotation Yrotation Xrotation
					JOINT RightToeBase
					{
						OFFSET -0.200000 -0.500000 1.950000
						CHANNELS 3 Zrotation Yrotation Xrotation
						End Site
						{
							OFFSET 0.000000 0.000000 0.000000
						}
					}
				}
			}
		}
	}
	JOINT LowerBack
	{
		OFFSET 0.000000 0.000000 0.000000
		CHANNELS 3 Zrotation Yrotation Xrotation
		JOINT Spine
		{
			OFFSET -0.087000 1.940000 -0.288900
			CHANNELS 3 Zrotation Yrotation Xrotation
			JOINT Spine1
			{
				OFFSET 0.000000 1.950000 0.060000
				CHANNELS 3 Zrotation Yrotation Xrotation
				JOINT Neck
				{
					OFFSET 0.000000 0.000000 0.000000
					CHANNELS 3 Zrotation Yrotation Xrotation
					JOINT Neck1
					{
						OFFSET 0.000000 1.600000 0.340000
						CHANNELS 3 Zrotation Yrotation Xrotation
						JOINT Head
						{
							OFFSET 0.000000 1.667000 -0.240000
							CHANNELS 3 Zrotation Yrotation Xrotation
							End Site
							{
								OFFSET 0.000000 0.000000 0.000000
							}
						}
					}
				}
				JOINT LeftShoulder
				{
					OFFSET 0.000000 0.000000 0.000000
					CHANNELS 3 Zrotation Yrotation Xrotation
					JOINT LeftArm
					{
						OFFSET 2.700000 1.550000 -0.730000
						CHANNELS 3 Zrotation Yrotation Xrotation
						JOINT LeftForeArm
						{
							OFFSET 5.450000 0.000000 0.000000
							CHANNELS 3 Zrotation Yrotation Xrotation
							JOINT LeftHand
							{
								OFFSET 3.450000 0.000000 0.000000
								CHANNELS 3 Zrotation Yrotation Xrotation
								JOINT LeftHandIndex1
								{
									OFFSET 0.750000 0.000000 0.000000
									CHANNELS 3 Zrotation Yrotation Xrotation
									End Site
									{
										OFFSET 0.000000 0.000000 0.000000
									}
								}
							}
						}
					}
				}
				JOINT RightShoulder
				{
					OFFSET 0.000000 0.000000 0.000000
					CHANNELS 3 Zrotation Yrotation Xrotation
					JOINT RightArm
					{
						OFFSET -2.700000 1.550000 -0.730000
						CHANNELS 3 Zrotation Yrotation Xrotation
						JOINT RightForeArm
						{
							OFFSET -5.450000 0.000000 0.000000
							CHANNELS 3 Zrotation Yrotation Xrotation
							JOINT RightHand
							{
								OFFSET -3.450000 0.000000 0.000000
								CHANNELS 3 Zrotation Yrotation Xrotation
								JOINT RightHandIndex1
								{
									OFFSET -0.750000 0.000000 0.000000
									CHANNELS 3 Zrotation Yrotation Xrotation
									End Site
									{
										OFFSET 0.000000 0.000000 0.000000
									}
								}
							}
						}
					}
				}
			}
		}
	}
}
MOTION
Frames: 8
Frame Time: 0.016667
-0.877010 17.854180 -0.276590 -0.670216 -3.699203 -8.761036 -15.061047 12.423275 3.766721 -1.630640 -6.419220 -6.207775 -18.681517 18.066165 45.559523 1.109795 11.036156 1.065547 -0.082920 -0.343100 -0.077330 18.510760 -9.631946 3.637611 -6.489413 6.404465 -32.620614 13.839016 -17.936468 52.184903 -1.634018 -9.206438 1.216059 -0.317460 0.534520 0.504350 -4.071361 -2.182237 -8.713279 21.159998 -12.223950 37.057343 -12.366277 -6.843418 4.248411 5.922438 -1.051483 -11.649654 -4.882703 2.331850 46.614649 -11.812570 4.971240 -17.387850 -8.694206 -5.362296 3.596411 -29.531300 2.614452 -12.401539 76.823593 -50.431140 -41.324265 -3.625062 1.904442 0.944210 0.145850 0.310610 0.235050 -3.713494 5.220331 8.201255 56.847819 4.447305 -17.610461 6.428560 61.758529 -0.322548 1.782991 -1.296178 -0.324340 0.434060 0.289490 -0.023140 
-0.803350 17.637080 -0.269760 0.218306 -5.176251 -11.278214 -15.121847 12.213071 3.951555 -4.375948 -6.208294 -2.902720 -22.571883 20.057610 44.722731 1.316104 11.559345 0.952825 -0.103280 -0.369940 -0.079080 18.503109 -9.450401 3.658421 -5.991680 6.779764 -31.463567 17.068072 -19.227231 51.391779 -1.730203 -9.462656 1.155531 -0.327360 0.544770 0.511140 -3.987911 -2.171373 -8.817057 20.404519 -12.198763 40.796015 -11.959189 -6.969007 5.468922 5.856856 -0.340731 -11.623699 -3.178749 2.066078 45.064579 -12.450780 5.830560 -19.060340 -9.089495 -6.101397 3.648867 -23.539732 5.916377 -12.431183 84.906310 -54.516270 -50.698254 -3.633945 1.671400 0.954990 0.157580 0.302840 0.221450 -3.134951 5.288033 8.470091 51.857679 2.240244 -17.856077 15.251486 70.095472 4.611797 1.758060 -1.419063 -0.341580 0.438020 0.309340 -0.038960 
-0.726880 17.399170 -0.256420 0.886970 -7.169506 -13.680101 -15.192324 12.101243 4.067239 -6.675839 -5.347186 0.389870 -25.984982 21.575684 42.939776 1.389663 11.885631 0.874499 -0.125060 -0.408560 -0.078480 18.484650 -9.263401 3.688867 -4.990483 7.558140 -30.285707 19.070799 -19.990253 51.381173 -1.825170 -9.717610 1.057292 -0.323490 0.564790 0.547980 -3.877280 -2.264161 -8.863842 20.122879 -11.737721 44.378826 -11.412026 -6.582924 6.659321 5.935276 0.219895 -10.960472 -1.782624 2.000450 42.365060 -13.761410 6.639290 -22.000290 -10.219372 -6.024780 2.903514 -16.271817 7.847017 -11.364610 92.151128 -57.569866 -59.726525 -3.718630 1.466825 0.987470 0.178100 0.294000 0.191110 -2.019013 4.548265 8.330945 45.370952 -0.553951 -16.788946 29.245572 78.174013 15.068176 1.774788 -1.545995 -0.374620 0.440540 0.360720 -0.067700 
-0.675880 17.127150 -0.249570 2.161996 -8.997491 -15.323315 -15.236677 11.912393 4.149807 -9.911979 -4.257252 2.602217 -28.067481 22.389675 41.404546 1.388309 11.978965 0.846064 -0.094840 -0.391690 -0.055130 18.502237 -9.069588 3.815241 -4.412185 8.730391 -30.756537 20.213677 -20.691345 52.829668 -1.921348 -10.149745 0.914803 -0.271200 0.563840 0.548710 -3.863886 -2.186404 -8.931951 19.557077 -10.724668 46.163513 -11.036630 -6.072328 7.980831 5.659021 0.472843 -10.207995 -1.258427 1.497692 40.478337 -13.789330 6.436070 -22.356750 -11.805798 -5.310573 1.786073 -8.917581 8.503057 -9.517195 100.472053 -57.984674 -68.940478 -3.849030 1.538109 0.986640 0.199030 0.256350 0.177730 0.285559 3.410699 8.369369 38.359590 -2.815492 -12.362498 56.435982 87.315877 39.170091 2.136116 -1.276857 -0.405120 0.425840 0.365930 -0.100230 
-0.624230 16.880250 -0.245890 3.178257 -10.141915 -17.040972 -15.288463 11.838951 4.194052 -12.465492 -3.005561 4.819168 -28.542345 22.573517 40.437169 1.377451 11.981926 0.848145 -0.028970 -0.304750 -0.029870 18.494881 -8.905015 3.895360 -3.891311 9.730690 -30.612474 20.865053 -21.312535 54.415251 -2.051190 -10.571408 0.778357 -0.198140 0.581420 0.603220 -3.798403 -2.266391 -8.975727 19.683565 -10.054768 48.931482 -10.595531 -5.767756 7.439483 5.882197 -0.175724 -7.833455 -2.041091 1.694674 37.737957 -14.692570 6.160030 -24.501040 -14.257545 -3.829601 0.451987 -2.622780 7.777069 -7.692428 108.277021 -57.075943 -76.915149 -4.032308 1.808311 0.958690 0.235860 0.262860 0.199480 2.699964 2.217733 5.283121 30.787941 -7.199442 -19.251655 116.916476 76.270726 92.481292 2.277171 1.404611 -0.384660 0.427060 0.354730 -0.089720 
-0.571600 16.631270 -0.242370 3.756014 -11.046128 -18.070661 -15.311463 11.708653 4.207620 -14.397642 -2.387632 5.671616 -27.892099 22.976640 41.590453 1.424959 12.144276 0.802093 0.030090 -0.221250 0.001520 18.520100 -8.747800 4.008559 -3.036172 10.961640 -31.281262 20.293975 -21.926318 57.467328 -2.196607 -11.120124 0.617694 -0.135060 0.577730 0.619130 -3.824718 -2.216983 -8.979551 20.509298 -10.099926 50.297749 -10.686460 -5.720845 7.791983 5.731527 -0.665459 -6.779764 -2.680670 1.480471 35.762359 -15.162850 5.803400 -24.992090 -16.058861 -2.726185 -0.864356 1.443213 7.899577 -7.010043 117.309858 -54.046963 -85.244378 -4.107873 2.236735 0.918870 0.254450 0.262990 0.218020 4.766604 1.047977 5.163505 24.726147 -9.693040 -15.854165 151.594472 73.683933 132.009031 1.661611 -1.172299 -0.365600 0.417960 0.319480 -0.078010 
-0.534610 16.434890 -0.235610 3.656260 -11.043584 -19.211041 -15.312355 11.630622 4.191127 -14.921432 -2.024615 7.096495 -27.251182 23.301014 42.654954 1.550039 12.247857 0.784123 0.114830 -0.110430 0.036260 18.548606 -8.632485 4.118038 -2.169815 11.883772 -31.796434 19.625751 -22.911274 60.991511 -2.383889 -11.783196 0.456303 -0.092840 0.531520 0.631590 -3.875715 -2.198891 -9.008418 21.544837 -11.180759 51.928193 -11.017604 -6.762821 7.750893 5.635046 -1.200879 -6.401498 -3.580194 1.214422 35.133106 -15.214980 5.391500 -23.985690 -17.203729 -2.426298 -1.343553 3.961161 10.483691 -7.130968 123.478258 -51.321042 -90.440131 -4.060962 2.570603 0.860460 0.243300 0.283410 0.266740 6.157540 0.682933 5.311693 21.533751 -10.827924 -13.693791 169.780988 69.291317 152.037059 1.736581 -1.658260 -0.298810 0.350460 0.223470 -0.042480 
-0.507220 16.277990 -0.245960 3.137161 -10.911619 -19.799513 -15.316773 11.557069 4.149708 -14.602018 -2.181978 7.899109 -27.177297 23.840308 43.782029 1.662622 12.450505 0.741559 0.127750 -0.078150 0.022750 18.573424 -8.486026 4.246155 -1.222165 12.695966 -32.837857 19.263035 -24.083011 64.095630 -2.557336 -12.391893 0.312793 -0.090590 0.525550 0.629090 -3.917106 -2.247972 -9.043679 22.354204 -12.443928 53.230385 -11.035601 -7.822220 7.984338 5.322174 -2.155784 -6.437115 -5.293525 1.126068 34.401072 -14.689110 4.590950 -24.025110 -17.164907 -2.331906 -1.479525 4.341604 11.990801 -7.742907 127.630769 -48.167140 -92.905961 -4.014422 2.741933 0.827670 0.230300 0.288680 0.285420 6.781828 0.880753 5.632753 20.645548 -11.558691 -12.936510 179.769454 64.950236 164.032392 1.799448 -1.802490 -0.266860 0.337290 0.198300 -0.009910 
